<svg xmlns="http://www.w3.org/2000/svg" viewBox="0 0 800 800" role="img" aria-labelledby="title desc">
  <title>SAFA</title>
  <desc>Local badge for Student Accounting and Finance Association</desc>
  <defs>
    <linearGradient id="g" x1="0" y1="0" x2="1" y2="1">
      <stop offset="0%" stop-color="#14532d"/>
      <stop offset="100%" stop-color="#16a34a"/>
    </linearGradient>
  </defs>
  <rect width="800" height="800" rx="120" fill="url(#g)"/>
  <path d="M245 590c0-67 47-106 116-122l31-7c39-9 60-24 60-50 0-31-28-51-74-51-45 0-84 18-119 53l-52-58c46-54 112-82 189-82 114 0 191 60 191 146 0 70-42 110-126 129l-38 9c-33 8-47 22-47 43h-131z" fill="#ecfdf5" opacity="0.95"/>
  <text x="400" y="690" text-anchor="middle" font-family="Arial, Helvetica, sans-serif" font-size="28" font-weight="700" fill="#ecfdf5" letter-spacing="4">STUDENT ACCOUNTING &amp; FINANCE ASSOCIATION</text>
</svg>
